<svg xmlns="http://www.w3.org/2000/svg" width="880" height="48" viewBox="0 0 880 48" role="img" aria-label="UPCOMING">
  <rect width="880" height="48" rx="24" fill="#4A4458"/>
  <circle cx="28" cy="24" r="14" fill="#E8DEF8" fill-opacity="0.18"/>
  <g transform="translate(18,14) scale(0.75)">
    <path d="M21 10.12h-6.78l2.74-2.82c-2.73-2.7-7.15-2.8-9.88-.1-2.74 2.71-2.74 7.08 0 9.79s7.15 2.71 9.88 0C18.32 15.65 19 14.08 19 12.1h2c0 1.98-.88 4.55-2.64 6.29-3.51 3.48-9.21 3.48-12.72 0-3.5-3.47-3.53-9.11-.02-12.58s9.14-3.47 12.65 0L21 3v7.12zM12.5 8v4.25l3.5 2.08-.72 1.21L11 13V8h1.5z" fill="#E8DEF8"/>
  </g>
  <text x="54" y="22" font-family="Roboto,'Google Sans',system-ui,sans-serif" font-size="11" font-weight="700" letter-spacing="1.4" fill="#E8DEF8">UPCOMING</text>
  <text x="54" y="38" font-family="Roboto,'Google Sans',system-ui,sans-serif" font-size="13" font-weight="500" fill="#E6E1E5">In the next release</text>
</svg>