<svg xmlns="http://www.w3.org/2000/svg" width="260" height="72" viewBox="0 0 260 72" role="img" aria-label="Download on GitHub">
  <defs>
    <linearGradient id="ghFill" x1="0%" y1="0%" x2="100%" y2="100%">
      <stop offset="0%" stop-color="#4F378B"/>
      <stop offset="100%" stop-color="#2B1C5E"/>
    </linearGradient>
  </defs>
  <rect width="260" height="72" rx="20" fill="url(#ghFill)"/>
  <rect x="1" y="1" width="258" height="70" rx="19" fill="none" stroke="#D0BCFF" stroke-opacity="0.35" stroke-width="1"/>
  <circle cx="44" cy="36" r="22" fill="#D0BCFF"/>
  <g transform="translate(30,22) scale(1)">
    <path d="M14,0C6.27,0,0,6.27,0,14c0,6.18,4.01,11.43,9.57,13.28.7,.13.96-.3.96-.67,0-.33-.01-1.21-.02-2.38-3.9,0-4.72-1.88-4.72-1.88-.64-1.62-1.56-2.05-1.56-2.05-1.27-.87.1-.85.1-.85,1.4.1,2.14,1.44,2.14,1.44,1.25,2.14,3.28,1.52,4.08,1.16.13-.91.49-1.52.89-1.87-3.11-.35-6.38-1.56-6.38-6.93,0-1.53.55-2.78,1.44-3.76-.14-.35-.62-1.78.14-3.71,0,0,1.18-.38,3.85,1.44,1.12-.31,2.32-.47,3.52-.47,1.2,0,2.4.16,3.52.47,2.67-1.82,3.85-1.44,3.85-1.44,.76,1.93,.28,3.36,.14,3.71,.89,.98,1.44,2.23,1.44,3.76,0,5.38-3.27,6.58-6.39,6.93,.5,.43,.95,1.29,.95,2.6,0,1.88-.02,3.39-.02,3.85,0,.37,.25,.81,.96,.67C23.99,25.43,28,20.18,28,14,28,6.27,21.73,0,14,0Z" fill="#381E72" transform="scale(0.86)"/>
  </g>
  <text x="82" y="30" font-family="Roboto,'Google Sans',system-ui,sans-serif" font-size="11" font-weight="600" letter-spacing="1.2" fill="#EADDFF">DOWNLOAD APK</text>
  <text x="82" y="52" font-family="Roboto,'Google Sans',system-ui,sans-serif" font-size="20" font-weight="700" fill="#E6E1E5">on GitHub</text>
</svg>