<svg xmlns="http://www.w3.org/2000/svg" width="260" height="72" viewBox="0 0 260 72" role="img" aria-label="Get it on Google Play">
  <defs>
    <linearGradient id="gpFill" x1="0%" y1="0%" x2="100%" y2="100%">
      <stop offset="0%" stop-color="#2B2930"/>
      <stop offset="100%" stop-color="#141218"/>
    </linearGradient>
  </defs>
  <rect width="260" height="72" rx="20" fill="url(#gpFill)"/>
  <rect x="1" y="1" width="258" height="70" rx="19" fill="none" stroke="#49454F" stroke-width="1"/>
  <circle cx="44" cy="36" r="22" fill="#4A4458"/>
  <g transform="translate(32,24) scale(0.85)">
    <path d="M 1.5,0.7 C 0.7,1.5 0.2,2.8 0.2,4.4 L 0.2,25.6 C 0.2,27.2 0.7,28.5 1.5,29.3 L 1.6,29.4 L 15.7,15.3 L 15.7,14.7 L 1.6,0.6 L 1.5,0.7 Z" fill="#EA4335"/>
    <path d="M 19.7,18.8 L 15.7,14.7 L 15.7,13.3 L 19.7,9.2 L 19.8,9.3 L 24.7,12.1 C 26.1,12.9 26.1,14.2 24.7,15.0 L 19.8,18.8 Z" fill="#FBBC05"/>
    <path d="M 19.8,9.3 L 1.6,0.1 C 0.9,-0.3 0.2,0.1 0.2,1.2 L 15.7,14.7 L 19.8,9.3 Z" fill="#4285F4"/>
    <path d="M 19.8,18.7 L 15.7,14.7 L 0.2,28.2 C 0.5,29.3 1.3,29.5 2.1,29.0 L 19.8,18.7 Z" fill="#34A853"/>
  </g>
  <text x="82" y="30" font-family="Roboto,'Google Sans',system-ui,sans-serif" font-size="11" font-weight="600" letter-spacing="1.2" fill="#CAC4D0">GET IT ON</text>
  <text x="82" y="52" font-family="Roboto,'Google Sans',system-ui,sans-serif" font-size="20" font-weight="700" fill="#E6E1E5">Google Play</text>
</svg>