<svg xmlns="http://www.w3.org/2000/svg" width="400" height="64" viewBox="0 0 400 64" role="img" aria-label="Know your shows?">
  <rect width="400" height="64" rx="16" fill="#211F26" stroke="#49454F" stroke-width="1"/>
  <rect x="12" y="12" width="40" height="40" rx="12" fill="#4F378B"/>
  <g transform="translate(20,20)">
    <path d="M15.5 14h-.79l-.28-.27A6.471 6.471 0 0016 9.5 6.5 6.5 0 109.5 16c1.61 0 3.09-.59 4.23-1.57l.27.28v.79l5 4.99L20.49 19l-4.99-5zm-6 0C7.01 14 5 11.99 5 9.5S7.01 5 9.5 5 14 7.01 14 9.5 11.99 14 9.5 14z" fill="#EADDFF" transform="scale(0.95)"/>
  </g>
  <text x="68" y="38" font-family="Roboto,'Google Sans',system-ui,sans-serif" font-size="18" font-weight="600" fill="#E6E1E5">Know your shows?</text>
</svg>