<svg xmlns="http://www.w3.org/2000/svg" width="880" height="56" viewBox="0 0 880 56" role="img" aria-label="03  ·  Highlights">
  <defs>
    <linearGradient id="sgfeatures" x1="0" y1="0" x2="1" y2="0">
      <stop offset="0%" stop-color="#4F378B"/>
      <stop offset="38%" stop-color="#211F26"/>
      <stop offset="100%" stop-color="#141218"/>
    </linearGradient>
  </defs>
  <rect width="880" height="56" rx="14" fill="url(#sgfeatures)" stroke="#49454F" stroke-width="1"/>
  <rect x="14" y="10" width="36" height="36" rx="10" fill="#D0BCFF"/>
  <g transform="translate(20,16) scale(1)">
    <path d="M19 9l1.25-2.75L23 5l-2.75-1.25L19 1l-1.25 2.75L15 5l2.75 1.25L19 9zm-7.5.5L9 4 6.5 9.5 1 12l5.5 2.5L9 20l2.5-5.5L17 12l-5.5-2.5zM19 15l-1.25 2.75L15 19l2.75 1.25L19 23l1.25-2.75L23 19l-2.75-1.25L19 15z" fill="#381E72" transform="scale(0.9)"/>
  </g>
  <text x="66" y="35" font-family="Roboto,'Google Sans',system-ui,sans-serif" font-size="20" font-weight="600" letter-spacing="0.2" fill="#E6E1E5">03  ·  Highlights</text>
</svg>