<svg xmlns="http://www.w3.org/2000/svg" width="880" height="56" viewBox="0 0 880 56" role="img" aria-label="09  ·  Community">
  <defs>
    <linearGradient id="sgcommunity" x1="0" y1="0" x2="1" y2="0">
      <stop offset="0%" stop-color="#4F378B"/>
      <stop offset="38%" stop-color="#211F26"/>
      <stop offset="100%" stop-color="#141218"/>
    </linearGradient>
  </defs>
  <rect width="880" height="56" rx="14" fill="url(#sgcommunity)" stroke="#49454F" stroke-width="1"/>
  <rect x="14" y="10" width="36" height="36" rx="10" fill="#D0BCFF"/>
  <g transform="translate(20,16) scale(1)">
    <path d="M16 11c1.66 0 2.99-1.34 2.99-3S17.66 5 16 5s-3 1.34-3 3 1.34 3 3 3zm-8 0c1.66 0 2.99-1.34 2.99-3S9.66 5 8 5 5 6.34 5 8s1.34 3 3 3zm0 2c-2.33 0-7 1.17-7 3.5V19h14v-2.5c0-2.33-4.67-3.5-7-3.5zm8 0c-.29 0-.62.02-.97.05 1.16.84 1.97 1.97 1.97 3.45V19h6v-2.5c0-2.33-4.67-3.5-7-3.5z" fill="#381E72" transform="scale(0.9)"/>
  </g>
  <text x="66" y="35" font-family="Roboto,'Google Sans',system-ui,sans-serif" font-size="20" font-weight="600" letter-spacing="0.2" fill="#E6E1E5">09  ·  Community</text>
</svg>